<svg xmlns="http://www.w3.org/2000/svg" width="300" height="43"><g fill="none" fill-rule="evenodd"><path fill="#00A1DE" fill-rule="nonzero" d="M17.693 21.09h-5.736l-5.736 5.718V21.09H.485v15.245H6.22v-5.718l5.736 5.718h7.648L11 27.759l6.692-6.67zm7.65 0h-5.738v15.246h15.298v-3.844h-9.56V21.09zm26.768 0-2.867 8.576-2.869-8.575h-9.56v15.245h5.737V24.902l3.823 11.434h5.736l3.824-11.434v11.434h5.737V21.09H52.11zm-24.857-8.575A3.34 3.34 0 0 0 30.6 9.18a3.34 3.34 0 0 0-3.346-3.334 3.34 3.34 0 0 0-3.346 3.334 3.34 3.34 0 0 0 3.346 3.335zm4.302-3.335a3.34 3.34 0 0 0 3.346 3.335A3.34 3.34 0 0 0 38.25 9.18a3.34 3.34 0 0 0-3.347-3.334 3.34 3.34 0 0 0-3.346 3.334zm-8.604 0a3.34 3.34 0 0 0-3.347-3.334A3.34 3.34 0 0 0 16.26 9.18a3.34 3.34 0 0 0 3.345 3.335 3.34 3.34 0 0 0 3.347-3.335zm-3.347 8.1h22.947v-3.812H19.605v3.811zM42.552 5.845a3.34 3.34 0 0 0-3.347 3.334 3.34 3.34 0 0 0 3.347 3.335 3.34 3.34 0 0 0 3.345-3.335 3.34 3.34 0 0 0-3.345-3.334zm-12.43.476h1.912V4.416h1.912V2.511h-1.912V.606h-1.912V2.51H28.21v1.905h1.912v1.906zM82.473 22.92h-2.755c-.113 0-.18.09-.18.18v6.174c0 .135.044.18.202.18h2.575c2.235 0 3.545-.899 3.545-3.39 0-2.29-1.287-3.144-3.387-3.144m6.3 13.336c0 .09-.067.157-.158.157h-2.326c-.18 0-.248-.067-.316-.202l-3.184-4.827c-.045-.067-.113-.157-.248-.157h-2.8c-.136 0-.181.045-.181.18v4.782c0 .157-.068.224-.204.224H77.37c-.158 0-.203-.067-.203-.224V21.394c0-.18.09-.247.203-.247h5.51c2.958 0 5.442 1.167 5.442 4.781 0 2.672-1.332 4.221-3.048 4.873.835 1.302 3.478 5.343 3.478 5.343.022.045.022.067.022.112m8.285-11.046c-2.236 0-4.065 1.212-4.065 4.917 0 3.233 1.671 4.603 4.11 4.603s4.132-1.415 4.132-4.603c0-3.727-1.874-4.917-4.177-4.917m0 11.428c-3.32 0-6.459-2.11-6.459-6.511 0-4.58 2.8-6.69 6.481-6.69 3.703 0 6.504 2.065 6.504 6.69 0 4.356-3.026 6.51-6.526 6.51m17.025-3.03c-.655 2.222-1.875 5.163-3.704 6.96a.394.394 0 0 1-.316.157h-2.123c-.09 0-.18-.067-.18-.158 0-.022.022-.066.045-.111.655-.607 2.484-2.627 2.687-3.817v-.023c0-.135-.09-.202-.18-.202h-1.242c-.136 0-.204-.067-.249-.18l-4.133-12.46c0-.023-.022-.045-.022-.045 0-.09.113-.134.226-.134h2.1c.136 0 .204.022.249.156l3.387 10.62c.045.158.158.18.248.18h.475c.09 0 .157-.022.203-.158l2.98-10.642c.023-.089.113-.156.226-.156h2.01c.09 0 .158.067.158.156v.023l-2.845 9.834zm13.118-3.435c0-.135-.045-.225-.248-.225h-3.05c-1.558 0-3.138.202-3.138 2.089 0 2.222 1.626 2.514 3.026 2.514h3.162c.203 0 .248-.045.248-.225v-4.153zm2.37 5.702c0 .18-.044.27-.27.315-1.717.18-4.223.449-5.465.449-2.529 0-5.51-.809-5.51-4.602 0-3.638 3.5-3.93 5.375-3.93.925 0 2.777.18 3.455.27 0-2.583-1.513-3.031-3.772-3.031-1.196 0-2.303.09-3.138.157h-.068c-.136 0-.203-.067-.226-.18l-.226-1.37v-.022c0-.112.09-.18.226-.18a32.78 32.78 0 0 1 3.794-.269c3.5 0 5.826 1.078 5.826 4.558v7.835zm5.532.539h-1.965c-.136 0-.203-.044-.203-.224V19.395c0-.157.067-.202.203-.224l1.942-.225c.18 0 .226.067.226.225v17.018c0 .157-.045.224-.203.224M152.22 22.92h-3.208c-.18 0-.248.09-.248.224v11.181c0 .158.045.225.225.225h3.275c2.665 0 4.788-1.684 4.788-5.905 0-4.176-1.943-5.725-4.833-5.725m-.43 13.493h-5.216c-.158 0-.203-.044-.203-.224V21.394c0-.18.068-.247.203-.247h5.533c3.997 0 7.362 1.571 7.362 7.162 0 6.196-3.387 8.104-7.678 8.104m20.795-.403c-1.377.224-3.319.538-4.877.538-3.839 0-5.872-1.28-5.872-5.119v-7.61c0-.136.069-.225.226-.225h1.92c.157 0 .248.067.248.202v7.745c0 2.2 1.062 3.076 3.365 3.076.858 0 1.851-.067 2.62-.134.135-.023.225-.068.225-.225V23.796c0-.157.045-.202.226-.202h1.92c.158 0 .248.067.248.202v11.922c0 .156-.068.269-.249.291m10.319.113c-.045.134-.114.179-.272.202-.97.112-1.535.202-2.326.202-2.145 0-3.093-.943-3.093-3.211v-7.97c0-.158-.068-.225-.226-.225h-1.535c-.159 0-.226-.09-.226-.246v-1.078c0-.135.067-.202.226-.202h1.558c.135 0 .203-.068.203-.225v-2.941c0-.158.045-.225.225-.27l1.92-.201c.158 0 .249.067.249.224v3.188c0 .157.045.225.226.225h2.438c.181 0 .226.067.226.225v1.077c0 .135-.045.202-.226.202h-2.438c-.159 0-.226.09-.226.247v7.364c0 1.302.203 1.84 1.896 1.84h1.378c.203 0 .226.09.226.225l-.203 1.348zm11.718.178c-.835.09-2.235.27-3.409.27-4.223 0-6.82-2.043-6.82-6.69 0-4.804 3.432-6.421 6.797-6.421 1.016 0 2.484.135 3.342.247.159.022.226.067.226.247l-.226 1.257c-.022.135-.068.225-.203.225h-.045a34.503 34.503 0 0 0-2.755-.09c-2.755 0-4.675 1.19-4.675 4.512 0 3.503 1.92 4.693 4.675 4.693 1.197 0 2.258-.045 3.093-.09h.069c.134 0 .18.067.18.202v1.414c0 .135-.046.18-.249.225m14.203-.112c0 .18-.045.224-.226.224h-1.941c-.181 0-.226-.045-.226-.224v-7.431c0-2.425-1.333-3.39-3.523-3.39-1.332 0-1.988.044-2.845.156-.159.023-.226.068-.226.225v10.44c0 .157-.045.224-.204.224h-1.964c-.18 0-.203-.045-.203-.224V19.417c0-.18.045-.224.203-.224l1.942-.247c.159 0 .226.045.226.247v4.4c0 .157.112.157.293.157.61-.089 2.123-.246 3.162-.246 3.793 0 5.532 1.549 5.532 5.456v7.229zM226.368 23.1c0-.09-.09-.18-.203-.18h-1.762c-.135 0-.225.045-.248.18l-1.626 6.04v.044c0 .09.068.135.159.135h5.193c.068 0 .113-.045.113-.113v-.067l-1.626-6.04zm5.985 13.156c0 .09-.068.157-.159.157h-2.01c-.135 0-.27-.067-.293-.224l-1.332-4.895c-.023-.135-.068-.202-.203-.202h-6.12c-.158 0-.204.045-.249.18l-1.332 4.894c-.045.203-.135.247-.293.247h-1.784c-.136 0-.249-.067-.249-.202 0-.022.023-.045.023-.067l3.951-14.795c.023-.113.159-.202.272-.202h5.51c.135 0 .27.09.316.247l3.929 14.75c0 .045.023.067.023.112zm4.356.157h-1.965c-.136 0-.204-.067-.204-.224v-12.37c0-.136.068-.225.227-.225h1.919c.181 0 .226.067.226.202V36.19c0 .157-.045.224-.203.224zm.203-15.154c0 .157-.045.224-.203.224h-1.965c-.113 0-.204-.067-.204-.247v-1.84c0-.158.068-.225.204-.225h1.965c.158 0 .203.067.203.224v1.864zm9.031 4.108c-.994 0-1.738.068-2.71.135-.18.022-.248.09-.248.225v10.462c0 .157-.045.224-.203.224h-1.965c-.112 0-.203-.067-.203-.224v-11.9c0-.157.068-.246.226-.291 1.535-.202 3.296-.45 5.126-.516.136 0 .203.089.203.224v1.481c0 .113-.067.18-.226.18m4.764 11.046h-1.965c-.135 0-.203-.044-.203-.224V19.395c0-.157.068-.202.203-.224l1.942-.225c.181 0 .226.067.226.225v17.018c0 .157-.045.224-.203.224m6.119 0h-1.965c-.135 0-.204-.067-.204-.224v-12.37c0-.136.069-.225.227-.225h1.919c.181 0 .226.067.226.202V36.19c0 .157-.045.224-.203.224zm.203-15.154c0 .157-.045.224-.203.224h-1.965c-.113 0-.204-.067-.204-.247v-1.84c0-.158.069-.225.204-.225h1.965c.158 0 .203.067.203.224v1.864zm14.767 15.154h-1.965c-.158 0-.203-.044-.203-.224v-7.656c0-2.47-1.242-3.166-3.68-3.166-.768 0-1.897.09-2.62.157-.18 0-.203.045-.203.225v10.44c0 .18-.068.224-.227.224h-1.964c-.158 0-.225-.044-.225-.224v-11.9c0-.179.045-.224.248-.268 1.807-.27 3.839-.517 5.08-.517 3.704 0 5.963 1.077 5.963 4.872v7.813c0 .157-.046.224-.204.224m8.963-11.113c-2.213 0-3.636 1.213-3.636 3.704 0 .18.046.225.203.225h7c.159 0 .249-.022.249-.202-.067-2.514-1.558-3.727-3.816-3.727m6.03 5.703h-9.44c-.136 0-.203.022-.203.224.09 2.83 2.01 3.458 4.788 3.458 1.038 0 2.19-.09 3.409-.18.09 0 .203.023.203.157v.045l-.203 1.37c-.045.156-.113.156-.271.201a27.974 27.974 0 0 1-3.906.293c-3.862 0-6.459-1.594-6.459-6.6 0-4.828 2.8-6.467 6.188-6.467 4.132 0 6.096 2.29 6.096 7.274 0 .157-.067.225-.203.225m6.524 5.567c-1.084 0-2.348-.112-3.68-.337-.181-.044-.226-.089-.226-.246v-1.37c0-.112.067-.18.18-.18h.068c.61.023 2.055.135 3.252.135 1.603 0 3.523-.067 3.523-1.818 0-3.032-7.16-1.662-7.16-5.995 0-2.649 2.801-3.278 5.24-3.278 1.084 0 2.439.18 3.455.338.158.044.249.133.249.246l-.227 1.302c0 .09-.067.157-.203.157h-.045c-.722-.067-1.874-.201-3.229-.201-1.332 0-2.845.067-2.845 1.459 0 2.402 7.136 1.325 7.136 5.77 0 2.85-2.19 4.019-5.488 4.019"/><path d="M.01 0h299.14v43H.01z"/></g></svg>